<?xml version="1.0" standalone="no"?>
<!DOCTYPE svg PUBLIC "-//W3C//DTD SVG 20010904//EN"
 "http://www.w3.org/TR/2001/REC-SVG-20010904/DTD/svg10.dtd">
<svg version="1.0" xmlns="http://www.w3.org/2000/svg"
 width="315.000000pt" height="315.000000pt" viewBox="0 0 315.000000 315.000000"
 preserveAspectRatio="xMidYMid meet">
<metadata>
Created by potrace 1.11, written by Peter Selinger 2001-2013
</metadata>
<g transform="translate(0.000000,315.000000) scale(0.100000,-0.100000)"
fill="#000000" stroke="none">
<path d="M1619 2205 c-120 -32 -225 -106 -269 -188 l-23 -44 -136 56 c-75 30
-139 60 -143 66 -4 5 -8 7 -8 3 0 -4 -32 6 -71 23 -39 17 -74 29 -78 27 -15
-6 18 -93 47 -123 15 -16 38 -51 51 -76 12 -25 37 -61 54 -80 18 -19 34 -45
36 -59 1 -14 8 -34 14 -45 16 -31 61 -85 70 -85 5 0 21 -8 35 -19 15 -10 46
-24 70 -31 23 -7 42 -17 42 -22 0 -4 8 -8 18 -8 9 0 42 -20 72 -45 62 -51 121
-84 195 -110 48 -16 147 -44 172 -49 7 -1 16 -5 19 -9 4 -4 16 -7 27 -7 22 0
77 -37 77 -52 0 -6 -10 -19 -22 -30 -18 -15 -33 -18 -73 -14 -73 6 -115 17
-115 29 0 6 -3 8 -6 4 -4 -3 -31 10 -61 29 -60 38 -70 46 -113 87 -15 15 -33
27 -38 27 -5 0 -59 -62 -121 -137 l-111 -137 34 -32 c76 -71 234 -173 259
-166 4 1 7 -3 7 -10 0 -6 3 -8 6 -5 4 3 14 2 24 -3 17 -9 39 -14 110 -28 47
-8 215 -8 263 1 154 29 280 136 326 278 12 36 17 169 7 204 -24 93 -46 132
-103 186 -35 34 -123 89 -142 89 -13 0 -5 -43 14 -80 19 -36 14 -90 -9 -109
-12 -10 -13 -5 -9 26 4 32 0 45 -20 68 -13 17 -25 35 -25 40 0 18 -37 65 -54
71 -10 3 -18 10 -18 15 0 5 -8 9 -18 9 -10 0 -22 4 -27 8 -6 5 -43 19 -83 31
-40 13 -76 30 -79 38 -7 17 8 48 23 48 5 0 14 3 19 6 36 21 185 -22 260 -75
85 -61 80 -60 114 -13 17 23 34 47 38 53 4 5 13 17 18 26 6 9 32 49 60 89 l49
72 -34 30 c-76 64 -224 138 -310 154 -61 11 -268 10 -311 -2z m300 -526 c12
-12 20 -23 17 -26 -7 -8 -56 25 -56 37 0 16 14 12 39 -11z"/>
</g>
</svg>
